<svg width="136" height="53" viewBox="0 0 136 53" fill="none" xmlns="http://www.w3.org/2000/svg">
<g filter="url(#filter0_i_103_8)">
<path d="M16.8121 2.775L18.2686 1.05478C18.6317 0.625772 18.9723 0.271629 19.0254 0.267665C19.0787 0.263583 19.0945 0.404565 19.0608 0.580996C18.8735 1.56168 18.8602 2.02415 18.9887 3.09789C19.3159 5.83204 20.2766 8.03036 21.9795 9.94194C22.3524 10.3605 23.0754 11.2 23.5862 11.8077C24.0969 12.4152 24.5447 12.9387 24.5813 12.9708C24.6365 13.0194 26.0751 14.6946 27.2348 16.0609C27.3981 16.2533 27.8564 16.7781 28.2534 17.227C31.0971 20.4432 32.3315 22.1238 32.7927 23.4068C33.0395 24.0933 33.0857 24.4259 33.0842 25.5058C33.0825 26.8745 32.9845 27.2957 32.3976 28.4576C31.9111 29.4207 31.2881 30.2182 28.804 33.0578C27.5832 34.4533 26.199 36.0537 25.728 36.6144C24.7123 37.8234 21.8918 41.1456 20.5564 42.7062C20.0349 43.3155 18.2799 45.4144 16.6563 47.3706C15.0327 49.3267 13.4603 51.2158 13.162 51.5685C12.8637 51.9212 12.5201 52.328 12.3983 52.4722C12.2767 52.6165 12.1232 52.7341 12.0574 52.7335C11.9411 52.7326 11.3193 51.8133 10.875 50.9855C10.7545 50.761 10.6166 50.5598 10.5685 50.5385C10.5204 50.517 10.4811 50.4465 10.4811 50.3815C10.4811 50.3166 10.3824 50.1242 10.2617 49.9539C10.141 49.7837 9.9371 49.4608 9.80835 49.2363C9.67971 49.0118 8.01825 46.2387 6.1163 43.0738C4.21435 39.9089 2.68025 37.2974 2.70728 37.2703C2.75191 37.2255 4.97289 39.4443 6.16419 40.7238C7.26134 41.9023 12.026 46.6709 12.1061 46.6709C12.1537 46.6709 12.5546 46.2388 12.9973 45.7106C13.6507 44.9309 16.5592 41.5077 17.6304 40.2574C18.1371 39.6661 21.7495 35.4091 22.4827 34.5394C22.8992 34.0452 24.4183 32.257 25.8584 30.5655C27.2983 28.8741 28.6214 27.2274 28.7984 26.9063C29.238 26.1086 29.2536 25.007 28.8378 24.1289C28.5917 23.6093 27.2728 21.9579 27.0234 21.8573C26.9271 21.8184 26.0906 22.7854 22.6569 26.9056C21.3206 28.509 19.9833 30.1094 19.6852 30.4622C18.2178 32.1981 16.1993 34.6677 15.8012 35.214C15.5559 35.5508 15.3388 35.8262 15.3189 35.8262C15.2666 35.8262 14.639 34.8153 14.2693 34.1354C14.095 33.8147 13.911 33.4999 13.8604 33.4357C13.6423 33.159 13.2776 32.4227 13.2776 32.2591C13.2776 32.1611 13.6578 31.6258 14.1224 31.0696C14.5869 30.5135 15.0777 29.9262 15.2129 29.7647C15.348 29.6032 15.795 29.0774 16.2061 28.5964C16.6172 28.1154 17.2761 27.3283 17.6702 26.8473C18.0644 26.3663 18.7402 25.5529 19.1719 25.0398C20.8891 22.9992 22.4223 21.1887 22.48 21.1334C22.8699 20.7603 24.347 18.899 24.347 18.7808C24.347 18.6065 21.946 15.7694 21.7985 15.7694C21.6744 15.7694 21.067 16.4338 19.4535 18.3348C18.7186 19.2006 18.0045 20.0402 17.8664 20.2005C17.7284 20.3609 17.2818 20.8906 16.8739 21.3777C16.4661 21.8648 15.4769 23.0232 14.6758 23.9521C13.8748 24.8809 12.7485 26.2009 12.1731 26.8854C11.1549 28.0968 10.8168 28.3327 10.6653 27.9377C10.6248 27.8318 10.226 27.129 9.77898 26.3757C9.33202 25.6225 8.96638 24.9252 8.96638 24.8263C8.96638 24.7274 9.33842 24.2103 9.79297 23.6771C11.774 21.3538 12.2913 20.7453 13.6897 19.0928C14.911 17.6496 16.7928 15.4672 17.2982 14.908C17.3628 14.8366 17.5652 14.5945 17.7481 14.3701C17.9309 14.1456 18.3108 13.7165 18.5921 13.4164C18.8735 13.1164 19.1036 12.7909 19.1036 12.6931C19.1036 12.4446 16.5533 9.47247 16.3401 9.47247C16.2443 9.47247 16.0573 9.61065 15.9245 9.77962C15.7918 9.94847 15.2861 10.5418 14.8008 11.098C14.3156 11.6544 13.5776 12.5211 13.1611 13.0242C12.7445 13.5273 12.0341 14.3639 11.5824 14.8833C10.6269 15.982 9.50435 17.3103 7.3351 19.909C6.47844 20.9352 5.74623 21.801 5.70778 21.8331C5.40669 22.0841 4.23964 23.5952 4.11368 23.8969C3.92398 24.351 3.92247 25.2493 4.11053 25.7645C4.1858 25.9706 4.44447 26.4166 4.68555 26.7556C5.0816 27.3128 6.19763 29.0113 9.24987 33.7018C9.82233 34.5816 10.7531 36.0033 11.3181 36.8612C11.8831 37.7191 12.3454 38.4429 12.3454 38.4696C12.3454 38.4963 12.5421 38.7931 12.7824 39.1291C14.0259 40.8672 13.8396 40.7651 11.122 38.2175C10.2889 37.4366 8.71586 35.9666 7.6264 34.9511C2.46888 30.1431 2.20427 29.8881 1.63798 29.1795C1.07123 28.4705 0.329582 26.9723 0.125905 26.1251C-0.156888 24.949 0.0508599 23.2221 0.607125 22.1246C0.927438 21.4928 1.21956 21.112 2.84874 19.2027C3.61788 18.3012 4.48328 17.2798 4.77166 16.9329C5.06005 16.5861 5.63799 15.9069 6.05583 15.4236C6.47378 14.9404 7.38917 13.8628 8.08992 13.0291C8.79078 12.1953 9.89072 10.9062 10.5344 10.1643C11.178 9.42256 12.5 7.87457 13.472 6.72433C15.4537 4.37955 15.6875 4.10319 16.8121 2.775Z" fill="url(#paint0_linear_103_8)"/>
<path d="M26.5362 40.9576L27.7428 39.5051C28.4065 38.7062 28.9884 38.0502 29.036 38.0473C29.0836 38.0443 29.2476 38.186 29.4005 38.3625C29.6831 38.6888 33.4005 42.9904 33.8594 43.5224C34.8946 44.7224 35.2979 45.2296 35.2988 45.3326C35.2998 45.4478 34.892 45.6828 34.2166 45.956C33.7964 46.126 32.3767 46.1263 31.9554 45.9566C30.8823 45.5241 30.4922 45.2498 29.4119 44.1681C28.7689 43.5243 27.8589 42.5387 27.3896 41.9777L26.5362 40.9576Z" fill="url(#paint1_linear_103_8)"/>
<path d="M21.3961 46.9624C21.6287 46.7059 22.1583 46.0872 22.5731 45.5874C22.9879 45.0877 23.3863 44.6985 23.4584 44.7224C23.6624 44.7902 28.1914 50.0917 28.1918 50.2631C28.1923 50.462 27.1093 50.9332 26.4567 51.0179C25.7365 51.1114 24.7944 50.9334 24.019 50.5573C23.2807 50.1992 20.9658 47.9733 20.9706 47.6261C20.9721 47.5176 21.1636 47.219 21.3961 46.9624Z" fill="url(#paint2_linear_103_8)"/>
</g>
<g filter="url(#filter1_i_103_8)">
<path fill-rule="evenodd" clip-rule="evenodd" d="M51.3573 16.4058C51.1689 16.4828 51.1162 18.6875 51.1162 26.5148V36.5254L51.5502 36.6309C51.7888 36.689 55.4128 36.7123 59.6034 36.6828L67.2225 36.6291V34.5074V32.3856L61.3394 32.2891L55.4562 32.1927V30.4567V28.7207L60.8089 28.6694L66.1616 28.6181V26.5024V24.3868L60.8089 24.3355L55.4562 24.2842V22.5482V20.8122L61.3394 20.7158L67.2225 20.6193V18.4975V16.3757L59.4105 16.3416C55.1138 16.3229 51.49 16.3518 51.3573 16.4058ZM71.397 16.5356C71.2321 16.7343 71.1864 19.4161 71.2232 26.7171L71.2732 36.6291H79.3745H87.4759L87.5307 34.5583L87.5853 32.4876L81.5511 32.4365L75.5167 32.3856L75.4203 24.3807L75.3239 16.3757L73.4723 16.3209C72.0696 16.2793 71.5666 16.3314 71.397 16.5356ZM90.6005 16.4016C90.5264 16.4759 90.4657 21.079 90.4657 26.6311V36.7256H92.5892H94.7127L94.6628 26.5507L94.6128 16.3757L92.6741 16.3212C91.608 16.2913 90.6748 16.3273 90.6005 16.4016ZM98.0295 16.4415C97.847 16.5582 97.7959 17.1325 97.8366 18.6098L97.8919 20.6193L101.268 20.7158L104.643 20.8122L104.693 28.7689L104.744 36.7256H106.837H108.931L109.102 28.7689L109.272 20.8122L112.744 20.7158L116.216 20.6193V18.4975V16.3757L107.247 16.3295C102.314 16.3038 98.166 16.3543 98.0295 16.4415ZM119.528 16.408C119.457 16.4786 119.399 21.079 119.399 26.6311V36.7256H127.7H136L135.946 34.5556L135.891 32.3856L129.815 32.2891L123.739 32.1927V30.4567V28.7207L129.044 28.6242L134.348 28.5278V26.5024V24.4771L129.044 24.3807L123.739 24.2842V22.5482V20.8122L129.622 20.7086C132.858 20.6517 135.527 20.5865 135.554 20.564C135.58 20.5414 135.602 19.6722 135.602 18.6325C135.602 17.4195 135.519 16.6593 135.37 16.5108C135.198 16.3385 133.161 16.2793 127.398 16.2793C123.14 16.2793 119.598 16.3372 119.528 16.408Z" fill="url(#paint3_linear_103_8)"/>
</g>
<defs>
<filter id="filter0_i_103_8" x="0" y="0.267578" width="35.2988" height="54.4668" filterUnits="userSpaceOnUse" color-interpolation-filters="sRGB">
<feFlood flood-opacity="0" result="BackgroundImageFix"/>
<feBlend mode="normal" in="SourceGraphic" in2="BackgroundImageFix" result="shape"/>
<feColorMatrix in="SourceAlpha" type="matrix" values="0 0 0 0 0 0 0 0 0 0 0 0 0 0 0 0 0 0 127 0" result="hardAlpha"/>
<feOffset dy="6"/>
<feGaussianBlur stdDeviation="1"/>
<feComposite in2="hardAlpha" operator="arithmetic" k2="-1" k3="1"/>
<feColorMatrix type="matrix" values="0 0 0 0 0 0 0 0 0 0 0 0 0 0 0 0 0 0 0.2 0"/>
<feBlend mode="normal" in2="shape" result="effect1_innerShadow_103_8"/>
</filter>
<filter id="filter1_i_103_8" x="51.1162" y="16.2793" width="87.8843" height="20.4473" filterUnits="userSpaceOnUse" color-interpolation-filters="sRGB">
<feFlood flood-opacity="0" result="BackgroundImageFix"/>
<feBlend mode="normal" in="SourceGraphic" in2="BackgroundImageFix" result="shape"/>
<feColorMatrix in="SourceAlpha" type="matrix" values="0 0 0 0 0 0 0 0 0 0 0 0 0 0 0 0 0 0 127 0" result="hardAlpha"/>
<feOffset dx="3"/>
<feGaussianBlur stdDeviation="5.5"/>
<feComposite in2="hardAlpha" operator="arithmetic" k2="-1" k3="1"/>
<feColorMatrix type="matrix" values="0 0 0 0 0 0 0 0 0 0 0 0 0 0 0 0 0 0 0.23 0"/>
<feBlend mode="normal" in2="shape" result="effect1_innerShadow_103_8"/>
</filter>
<linearGradient id="paint0_linear_103_8" x1="35.3055" y1="9.1882" x2="14.9461" y2="58.328" gradientUnits="userSpaceOnUse">
<stop stop-color="#DB499C" stop-opacity="0.47"/>
<stop offset="0.760417" stop-color="#2E22AC" stop-opacity="0.82"/>
</linearGradient>
<linearGradient id="paint1_linear_103_8" x1="35.3055" y1="9.1882" x2="14.9461" y2="58.328" gradientUnits="userSpaceOnUse">
<stop stop-color="#DB499C" stop-opacity="0.47"/>
<stop offset="0.760417" stop-color="#2E22AC" stop-opacity="0.82"/>
</linearGradient>
<linearGradient id="paint2_linear_103_8" x1="35.3055" y1="9.1882" x2="14.9461" y2="58.328" gradientUnits="userSpaceOnUse">
<stop stop-color="#DB499C" stop-opacity="0.47"/>
<stop offset="0.760417" stop-color="#2E22AC" stop-opacity="0.82"/>
</linearGradient>
<linearGradient id="paint3_linear_103_8" x1="55.9385" y1="36.7256" x2="135.988" y2="16.2793" gradientUnits="userSpaceOnUse">
<stop stop-color="#544ABB" stop-opacity="0.9"/>
<stop offset="1" stop-color="#EDBBD9"/>
</linearGradient>
</defs>
</svg>
