<svg width="36" height="53" viewBox="0 0 36 53" fill="none" xmlns="http://www.w3.org/2000/svg">
<g filter="url(#filter0_i_103_7)">
<path d="M16.8121 2.50743L18.2686 0.787201C18.6317 0.358194 18.9723 0.00405115 19.0254 8.64282e-05C19.0787 -0.0039949 19.0945 0.136987 19.0608 0.313418C18.8735 1.2941 18.8602 1.75658 18.9887 2.83032C19.3159 5.56446 20.2766 7.76278 21.9795 9.67436C22.3524 10.0929 23.0754 10.9325 23.5862 11.5401C24.0969 12.1477 24.5447 12.6711 24.5813 12.7032C24.6365 12.7518 26.0751 14.427 27.2348 15.7933C27.3981 15.9857 27.8564 16.5105 28.2534 16.9594C31.0971 20.1756 32.3315 21.8562 32.7927 23.1393C33.0395 23.8257 33.0857 24.1583 33.0842 25.2382C33.0825 26.6069 32.9845 27.0281 32.3976 28.19C31.9111 29.1532 31.2881 29.9507 28.804 32.7902C27.5832 34.1857 26.199 35.7861 25.728 36.3468C24.7123 37.5558 21.8918 40.878 20.5564 42.4386C20.0349 43.0479 18.2799 45.1469 16.6563 47.103C15.0327 49.0591 13.4603 50.9482 13.162 51.3009C12.8637 51.6537 12.5201 52.0604 12.3983 52.2047C12.2767 52.3489 12.1232 52.4666 12.0574 52.466C11.9411 52.465 11.3193 51.5457 10.875 50.7179C10.7545 50.4934 10.6166 50.2923 10.5685 50.2709C10.5204 50.2495 10.4811 50.1789 10.4811 50.114C10.4811 50.049 10.3824 49.8566 10.2617 49.6864C10.141 49.5161 9.9371 49.1932 9.80835 48.9687C9.67971 48.7443 8.01825 45.9712 6.1163 42.8063C4.21435 39.6414 2.68025 37.0298 2.70728 37.0027C2.75191 36.958 4.97289 39.1767 6.16419 40.4562C7.26134 41.6347 12.026 46.4033 12.1061 46.4033C12.1537 46.4033 12.5546 45.9712 12.9973 45.4431C13.6507 44.6633 16.5592 41.2401 17.6304 39.9898C18.1371 39.3985 21.7495 35.1415 22.4827 34.2719C22.8992 33.7777 24.4183 31.9895 25.8584 30.2979C27.2983 28.6065 28.6214 26.9599 28.7984 26.6387C29.238 25.841 29.2536 24.7394 28.8378 23.8613C28.5917 23.3417 27.2728 21.6903 27.0234 21.5898C26.9271 21.5508 26.0906 22.5179 22.6569 26.638C21.3206 28.2414 19.9833 29.8419 19.6852 30.1946C18.2178 31.9306 16.1993 34.4001 15.8012 34.9464C15.5559 35.2832 15.3388 35.5586 15.3189 35.5586C15.2666 35.5586 14.639 34.5478 14.2693 33.8678C14.095 33.5471 13.911 33.2323 13.8604 33.1681C13.6423 32.8914 13.2776 32.1552 13.2776 31.9916C13.2776 31.8935 13.6578 31.3582 14.1224 30.802C14.5869 30.2459 15.0777 29.6587 15.2129 29.4972C15.348 29.3357 15.795 28.8099 16.2061 28.3289C16.6172 27.8478 17.2761 27.0607 17.6702 26.5797C18.0644 26.0987 18.7402 25.2853 19.1719 24.7723C20.8891 22.7316 22.4223 20.9211 22.48 20.8658C22.8699 20.4927 24.347 18.6314 24.347 18.5133C24.347 18.3389 21.946 15.5018 21.7985 15.5018C21.6744 15.5018 21.067 16.1662 19.4535 18.0672C18.7186 18.933 18.0045 19.7726 17.8664 19.933C17.7284 20.0933 17.2818 20.6231 16.8739 21.1101C16.4661 21.5972 15.4769 22.7556 14.6758 23.6845C13.8748 24.6133 12.7485 25.9333 12.1731 26.6178C11.1549 27.8292 10.8168 28.0651 10.6653 27.6701C10.6248 27.5642 10.226 26.8614 9.77898 26.1081C9.33202 25.355 8.96638 24.6576 8.96638 24.5588C8.96638 24.4599 9.33842 23.9427 9.79297 23.4096C11.774 21.0862 12.2913 20.4778 13.6897 18.8252C14.911 17.382 16.7928 15.1997 17.2982 14.6404C17.3628 14.569 17.5652 14.327 17.7481 14.1025C17.9309 13.878 18.3108 13.4489 18.5921 13.1489C18.8735 12.8488 19.1036 12.5234 19.1036 12.4255C19.1036 12.177 16.5533 9.20489 16.3401 9.20489C16.2443 9.20489 16.0573 9.34307 15.9245 9.51204C15.7918 9.68089 15.2861 10.2742 14.8008 10.8304C14.3156 11.3868 13.5776 12.2535 13.1611 12.7566C12.7445 13.2598 12.0341 14.0963 11.5824 14.6157C10.6269 15.7144 9.50435 17.0427 7.3351 19.6414C6.47844 20.6676 5.74623 21.5334 5.70778 21.5655C5.40669 21.8166 4.23964 23.3276 4.11368 23.6294C3.92398 24.0834 3.92247 24.9817 4.11053 25.4969C4.1858 25.703 4.44447 26.1491 4.68555 26.4881C5.0816 27.0452 6.19763 28.7437 9.24987 33.4342C9.82233 34.3141 10.7531 35.7358 11.3181 36.5937C11.8831 37.4516 12.3454 38.1754 12.3454 38.2021C12.3454 38.2288 12.5421 38.5255 12.7824 38.8615C14.0259 40.5997 13.8396 40.4975 11.122 37.95C10.2889 37.169 8.71586 35.699 7.6264 34.6835C2.46888 29.8756 2.20427 29.6205 1.63798 28.9119C1.07123 28.2029 0.329582 26.7047 0.125905 25.8575C-0.156888 24.6814 0.0508599 22.9546 0.607125 21.857C0.927438 21.2252 1.21956 20.8444 2.84874 18.9351C3.61788 18.0336 4.48328 17.0123 4.77166 16.6653C5.06005 16.3185 5.63799 15.6393 6.05583 15.1561C6.47378 14.6728 7.38917 13.5952 8.08992 12.7615C8.79078 11.9277 9.89072 10.6386 10.5344 9.89674C11.178 9.15498 12.5 7.60699 13.472 6.45675C15.4537 4.11197 15.6875 3.83561 16.8121 2.50743Z" fill="url(#paint0_linear_103_7)"/>
<path d="M26.5362 40.69L27.7428 39.2376C28.4065 38.4387 28.9884 37.7826 29.036 37.7797C29.0836 37.7767 29.2476 37.9185 29.4005 38.0949C29.6831 38.4212 33.4005 42.7228 33.8594 43.2549C34.8946 44.4548 35.2979 44.962 35.2988 45.065C35.2998 45.1802 34.892 45.4152 34.2166 45.6884C33.7964 45.8584 32.3767 45.8588 31.9554 45.689C30.8823 45.2565 30.4922 44.9822 29.4119 43.9005C28.7689 43.2567 27.8589 42.2712 27.3896 41.7101L26.5362 40.69Z" fill="url(#paint1_linear_103_7)"/>
<path d="M21.3961 46.6949C21.6287 46.4383 22.1583 45.8196 22.5731 45.3198C22.9879 44.8201 23.3863 44.4309 23.4584 44.4548C23.6624 44.5227 28.1914 49.8241 28.1918 49.9955C28.1923 50.1944 27.1093 50.6656 26.4567 50.7503C25.7365 50.8438 24.7944 50.6659 24.019 50.2897C23.2807 49.9316 20.9658 47.7057 20.9706 47.3585C20.9721 47.25 21.1636 46.9514 21.3961 46.6949Z" fill="url(#paint2_linear_103_7)"/>
</g>
<defs>
<filter id="filter0_i_103_7" x="0" y="0" width="35.2988" height="54.4668" filterUnits="userSpaceOnUse" color-interpolation-filters="sRGB">
<feFlood flood-opacity="0" result="BackgroundImageFix"/>
<feBlend mode="normal" in="SourceGraphic" in2="BackgroundImageFix" result="shape"/>
<feColorMatrix in="SourceAlpha" type="matrix" values="0 0 0 0 0 0 0 0 0 0 0 0 0 0 0 0 0 0 127 0" result="hardAlpha"/>
<feOffset dy="6"/>
<feGaussianBlur stdDeviation="1"/>
<feComposite in2="hardAlpha" operator="arithmetic" k2="-1" k3="1"/>
<feColorMatrix type="matrix" values="0 0 0 0 0 0 0 0 0 0 0 0 0 0 0 0 0 0 0.2 0"/>
<feBlend mode="normal" in2="shape" result="effect1_innerShadow_103_7"/>
</filter>
<linearGradient id="paint0_linear_103_7" x1="35.3055" y1="8.92063" x2="14.9461" y2="58.0605" gradientUnits="userSpaceOnUse">
<stop stop-color="#DB499C" stop-opacity="0.47"/>
<stop offset="0.760417" stop-color="#2E22AC" stop-opacity="0.82"/>
</linearGradient>
<linearGradient id="paint1_linear_103_7" x1="35.3055" y1="8.92063" x2="14.9461" y2="58.0605" gradientUnits="userSpaceOnUse">
<stop stop-color="#DB499C" stop-opacity="0.47"/>
<stop offset="0.760417" stop-color="#2E22AC" stop-opacity="0.82"/>
</linearGradient>
<linearGradient id="paint2_linear_103_7" x1="35.3055" y1="8.92063" x2="14.9461" y2="58.0605" gradientUnits="userSpaceOnUse">
<stop stop-color="#DB499C" stop-opacity="0.47"/>
<stop offset="0.760417" stop-color="#2E22AC" stop-opacity="0.82"/>
</linearGradient>
</defs>
</svg>
